<mxfile host="65bd71144e">
    <diagram id="zQgq3WBIan0EQruBycjX" name="Page-1">
        <mxGraphModel dx="877" dy="833" grid="1" gridSize="10" guides="1" tooltips="1" connect="1" arrows="1" fold="1" page="1" pageScale="1" pageWidth="850" pageHeight="1100" math="0" shadow="0">
            <root>
                <mxCell id="0"/>
                <mxCell id="1" parent="0"/>
                <mxCell id="23" value="" style="rounded=0;whiteSpace=wrap;html=1;" parent="1" vertex="1">
                    <mxGeometry x="330" y="490" width="510" height="520" as="geometry"/>
                </mxCell>
                <mxCell id="2" value="&lt;h1&gt;Uwlryoung Portfolio&lt;/h1&gt;" style="rounded=0;whiteSpace=wrap;html=1;align=left;" parent="1" vertex="1">
                    <mxGeometry width="850" height="100" as="geometry"/>
                </mxCell>
                <mxCell id="4" value="Nav - Projects" style="rounded=0;whiteSpace=wrap;html=1;" parent="1" vertex="1">
                    <mxGeometry x="460" y="50" width="370" height="30" as="geometry"/>
                </mxCell>
                <mxCell id="6" value="&lt;h2&gt;&lt;font style=&quot;font-size: 21px;&quot;&gt;Contact Me:&amp;nbsp;&lt;/font&gt;&lt;/h2&gt;" style="rounded=0;whiteSpace=wrap;html=1;align=left;" parent="1" vertex="1">
                    <mxGeometry y="1020" width="850" height="80" as="geometry"/>
                </mxCell>
                <mxCell id="7" value="&lt;font style=&quot;font-size: 16px;&quot;&gt;Figure with an caption, a hero pic! (automatic slide show?)&lt;/font&gt;" style="rounded=0;whiteSpace=wrap;html=1;" parent="1" vertex="1">
                    <mxGeometry y="119" width="850" height="150" as="geometry"/>
                </mxCell>
                <mxCell id="8" value="&lt;h2&gt;&lt;font style=&quot;font-size: 24px;&quot;&gt;&amp;nbsp; &amp;nbsp;About Me&lt;/font&gt;&lt;/h2&gt;" style="shape=internalStorage;whiteSpace=wrap;html=1;backgroundOutline=1;dx=0;dy=0;align=left;verticalAlign=top;" parent="1" vertex="1">
                    <mxGeometry x="10" y="289" width="830" height="170" as="geometry"/>
                </mxCell>
                <mxCell id="12" value="Aside" style="rounded=0;whiteSpace=wrap;html=1;fontSize=24;" parent="1" vertex="1">
                    <mxGeometry x="10" y="489" width="290" height="521" as="geometry"/>
                </mxCell>
                <mxCell id="13" value="Project 1 Caption + Figure" style="rounded=0;whiteSpace=wrap;html=1;fontSize=21;verticalAlign=top;align=left;" parent="1" vertex="1">
                    <mxGeometry x="350" y="510" width="470" height="239" as="geometry"/>
                </mxCell>
                <mxCell id="15" value="Project 3 Caption + Figure" style="rounded=0;whiteSpace=wrap;html=1;fontSize=21;align=left;verticalAlign=top;" parent="1" vertex="1">
                    <mxGeometry x="590" y="760" width="230" height="119" as="geometry"/>
                </mxCell>
                <mxCell id="16" value="Project 2 Caption + Figure" style="rounded=0;whiteSpace=wrap;html=1;fontSize=21;align=left;verticalAlign=top;" parent="1" vertex="1">
                    <mxGeometry x="350" y="760" width="220" height="119" as="geometry"/>
                </mxCell>
                <mxCell id="18" value="Project 4 Caption + figure" style="rounded=0;whiteSpace=wrap;html=1;fontSize=21;verticalAlign=top;" parent="1" vertex="1">
                    <mxGeometry x="350" y="889" width="220" height="111" as="geometry"/>
                </mxCell>
                <mxCell id="19" value="Project 5 Caption + Figure" style="rounded=0;whiteSpace=wrap;html=1;fontSize=21;verticalAlign=top;" parent="1" vertex="1">
                    <mxGeometry x="590" y="890" width="230" height="109" as="geometry"/>
                </mxCell>
                <mxCell id="20" value="Profile Pic" style="ellipse;whiteSpace=wrap;html=1;fontSize=21;" parent="1" vertex="1">
                    <mxGeometry x="30" y="339" width="150" height="110" as="geometry"/>
                </mxCell>
                <mxCell id="21" value="" style="rounded=0;whiteSpace=wrap;html=1;fontSize=21;" parent="1" vertex="1">
                    <mxGeometry x="20" y="499" width="270" height="130" as="geometry"/>
                </mxCell>
                <mxCell id="22" value="Text about me." style="rounded=0;whiteSpace=wrap;html=1;fontSize=21;" parent="1" vertex="1">
                    <mxGeometry x="210" y="349" width="610" height="100" as="geometry"/>
                </mxCell>
            </root>
        </mxGraphModel>
    </diagram>
</mxfile>